<mxfile host="app.diagrams.net" modified="2022-06-27T09:19:10.123Z" agent="5.0 (X11)" etag="-s54tad3rZRpbM6W6846" version="18.0.7" type="github">
  <diagram name="feature_tracker" id="0iVlG7tezYv5LOxb0QvU">
    <mxGraphModel dx="2862" dy="1517" grid="1" gridSize="10" guides="1" tooltips="1" connect="1" arrows="1" fold="1" page="0" pageScale="1" pageWidth="827" pageHeight="1169" math="0" shadow="0">
      <root>
        <mxCell id="0" />
        <mxCell id="1" parent="0" />
        <mxCell id="ofToJJIBVl73OULYjI8x-34" value="" style="rounded=0;whiteSpace=wrap;html=1;dashed=1;dashPattern=1 1;fontSize=12;" parent="1" vertex="1">
          <mxGeometry x="-780" y="550" width="1570" height="510" as="geometry" />
        </mxCell>
        <mxCell id="ofToJJIBVl73OULYjI8x-33" value="" style="rounded=0;whiteSpace=wrap;html=1;dashed=1;dashPattern=1 1;fontSize=12;" parent="1" vertex="1">
          <mxGeometry x="-780" y="-90" width="1570" height="620" as="geometry" />
        </mxCell>
        <mxCell id="QfUjRXZaHYbQl4VEjJVI-5" value="" style="rounded=0;whiteSpace=wrap;html=1;fillColor=#fff2cc;strokeColor=#d6b656;" parent="1" vertex="1">
          <mxGeometry x="-400" y="80" width="200" height="280" as="geometry" />
        </mxCell>
        <mxCell id="QfUjRXZaHYbQl4VEjJVI-1" value="TIcket 1" style="rounded=0;whiteSpace=wrap;html=1;fillColor=#ffff88;strokeColor=#36393d;" parent="1" vertex="1">
          <mxGeometry x="-360" y="110" width="120" height="60" as="geometry" />
        </mxCell>
        <mxCell id="QfUjRXZaHYbQl4VEjJVI-3" value="TIcket 2" style="rounded=0;whiteSpace=wrap;html=1;fillColor=#ffff88;strokeColor=#36393d;" parent="1" vertex="1">
          <mxGeometry x="-360" y="190" width="120" height="60" as="geometry" />
        </mxCell>
        <mxCell id="QfUjRXZaHYbQl4VEjJVI-4" value="Ticket 3" style="rounded=0;whiteSpace=wrap;html=1;fillColor=#ffff88;strokeColor=#36393d;" parent="1" vertex="1">
          <mxGeometry x="-360" y="270" width="120" height="60" as="geometry" />
        </mxCell>
        <mxCell id="QfUjRXZaHYbQl4VEjJVI-7" value="" style="rounded=0;whiteSpace=wrap;html=1;fillColor=#dae8fc;strokeColor=#6c8ebf;" parent="1" vertex="1">
          <mxGeometry x="-80" y="80" width="200" height="280" as="geometry" />
        </mxCell>
        <mxCell id="QfUjRXZaHYbQl4VEjJVI-8" value="Card a" style="rounded=0;whiteSpace=wrap;html=1;fillColor=#cce5ff;strokeColor=#36393d;" parent="1" vertex="1">
          <mxGeometry x="-40" y="110" width="120" height="60" as="geometry" />
        </mxCell>
        <mxCell id="QfUjRXZaHYbQl4VEjJVI-9" value="Card b" style="rounded=0;whiteSpace=wrap;html=1;fillColor=#cce5ff;strokeColor=#36393d;" parent="1" vertex="1">
          <mxGeometry x="-40" y="190" width="120" height="60" as="geometry" />
        </mxCell>
        <mxCell id="QfUjRXZaHYbQl4VEjJVI-11" value="&lt;font style=&quot;font-size: 20px;&quot;&gt;Helpdesk&lt;/font&gt;" style="text;html=1;strokeColor=none;fillColor=none;align=center;verticalAlign=middle;whiteSpace=wrap;rounded=0;fontStyle=1;fontSize=16;" parent="1" vertex="1">
          <mxGeometry x="-350" y="40" width="100" height="30" as="geometry" />
        </mxCell>
        <mxCell id="QfUjRXZaHYbQl4VEjJVI-13" value="&lt;font style=&quot;font-size: 20px;&quot;&gt;Tableau&lt;/font&gt;" style="text;html=1;strokeColor=none;fillColor=none;align=center;verticalAlign=middle;whiteSpace=wrap;rounded=0;fontStyle=1;fontSize=16;" parent="1" vertex="1">
          <mxGeometry x="-30" y="40" width="100" height="30" as="geometry" />
        </mxCell>
        <mxCell id="QfUjRXZaHYbQl4VEjJVI-14" value="" style="rounded=0;whiteSpace=wrap;html=1;fillColor=#d5e8d4;strokeColor=#82b366;" parent="1" vertex="1">
          <mxGeometry x="240" y="80" width="200" height="280" as="geometry" />
        </mxCell>
        <mxCell id="QfUjRXZaHYbQl4VEjJVI-15" value="Branch feature/foo" style="rounded=0;whiteSpace=wrap;html=1;fillColor=#cdeb8b;strokeColor=#36393d;" parent="1" vertex="1">
          <mxGeometry x="280" y="150" width="120" height="60" as="geometry" />
        </mxCell>
        <mxCell id="QfUjRXZaHYbQl4VEjJVI-16" value="Branch feature/bar" style="rounded=0;whiteSpace=wrap;html=1;fillColor=#cdeb8b;strokeColor=#36393d;" parent="1" vertex="1">
          <mxGeometry x="280" y="245" width="120" height="60" as="geometry" />
        </mxCell>
        <mxCell id="QfUjRXZaHYbQl4VEjJVI-18" value="&lt;font style=&quot;font-size: 20px;&quot;&gt;Git Repo&lt;/font&gt;" style="text;html=1;strokeColor=none;fillColor=none;align=center;verticalAlign=middle;whiteSpace=wrap;rounded=0;fontStyle=1;fontSize=16;" parent="1" vertex="1">
          <mxGeometry x="290" y="40" width="100" height="30" as="geometry" />
        </mxCell>
        <mxCell id="QfUjRXZaHYbQl4VEjJVI-20" value="" style="endArrow=classic;startArrow=classic;html=1;rounded=0;fontSize=20;exitX=1;exitY=0.5;exitDx=0;exitDy=0;" parent="1" source="QfUjRXZaHYbQl4VEjJVI-1" target="QfUjRXZaHYbQl4VEjJVI-8" edge="1">
          <mxGeometry width="50" height="50" relative="1" as="geometry">
            <mxPoint x="-740" y="290" as="sourcePoint" />
            <mxPoint x="-690" y="240" as="targetPoint" />
          </mxGeometry>
        </mxCell>
        <mxCell id="QfUjRXZaHYbQl4VEjJVI-22" value="" style="endArrow=classic;startArrow=classic;html=1;rounded=0;fontSize=20;exitX=1;exitY=0.5;exitDx=0;exitDy=0;entryX=0;entryY=0.5;entryDx=0;entryDy=0;" parent="1" source="QfUjRXZaHYbQl4VEjJVI-3" target="QfUjRXZaHYbQl4VEjJVI-8" edge="1">
          <mxGeometry width="50" height="50" relative="1" as="geometry">
            <mxPoint x="-170" y="300" as="sourcePoint" />
            <mxPoint x="-120" y="250" as="targetPoint" />
          </mxGeometry>
        </mxCell>
        <mxCell id="QfUjRXZaHYbQl4VEjJVI-23" value="" style="endArrow=classic;startArrow=classic;html=1;rounded=0;fontSize=20;exitX=1;exitY=0.5;exitDx=0;exitDy=0;entryX=0;entryY=0.5;entryDx=0;entryDy=0;" parent="1" source="QfUjRXZaHYbQl4VEjJVI-4" target="QfUjRXZaHYbQl4VEjJVI-27" edge="1">
          <mxGeometry width="50" height="50" relative="1" as="geometry">
            <mxPoint x="180" y="440" as="sourcePoint" />
            <mxPoint x="230" y="390" as="targetPoint" />
          </mxGeometry>
        </mxCell>
        <mxCell id="QfUjRXZaHYbQl4VEjJVI-24" value="" style="endArrow=classic;startArrow=classic;html=1;rounded=0;fontSize=20;exitX=1;exitY=0.5;exitDx=0;exitDy=0;entryX=0;entryY=0.5;entryDx=0;entryDy=0;" parent="1" source="QfUjRXZaHYbQl4VEjJVI-8" target="QfUjRXZaHYbQl4VEjJVI-15" edge="1">
          <mxGeometry width="50" height="50" relative="1" as="geometry">
            <mxPoint x="180" y="440" as="sourcePoint" />
            <mxPoint x="230" y="390" as="targetPoint" />
          </mxGeometry>
        </mxCell>
        <mxCell id="QfUjRXZaHYbQl4VEjJVI-25" value="" style="endArrow=classic;startArrow=classic;html=1;rounded=0;fontSize=20;entryX=0;entryY=0.5;entryDx=0;entryDy=0;exitX=1;exitY=0.5;exitDx=0;exitDy=0;" parent="1" source="QfUjRXZaHYbQl4VEjJVI-9" target="QfUjRXZaHYbQl4VEjJVI-16" edge="1">
          <mxGeometry width="50" height="50" relative="1" as="geometry">
            <mxPoint x="180" y="440" as="sourcePoint" />
            <mxPoint x="230" y="390" as="targetPoint" />
          </mxGeometry>
        </mxCell>
        <mxCell id="QfUjRXZaHYbQl4VEjJVI-26" value="" style="endArrow=classic;startArrow=classic;html=1;rounded=0;fontSize=20;exitX=1;exitY=0.5;exitDx=0;exitDy=0;entryX=0;entryY=0.5;entryDx=0;entryDy=0;" parent="1" source="QfUjRXZaHYbQl4VEjJVI-9" target="QfUjRXZaHYbQl4VEjJVI-15" edge="1">
          <mxGeometry width="50" height="50" relative="1" as="geometry">
            <mxPoint x="180" y="440" as="sourcePoint" />
            <mxPoint x="230" y="390" as="targetPoint" />
          </mxGeometry>
        </mxCell>
        <mxCell id="QfUjRXZaHYbQl4VEjJVI-27" value="&lt;font style=&quot;font-size: 12px;&quot;&gt;Card c&lt;/font&gt;" style="rounded=0;whiteSpace=wrap;html=1;fontSize=20;fillColor=#cce5ff;strokeColor=#36393d;" parent="1" vertex="1">
          <mxGeometry x="-40" y="270" width="120" height="60" as="geometry" />
        </mxCell>
        <mxCell id="QfUjRXZaHYbQl4VEjJVI-28" value="" style="endArrow=classic;startArrow=classic;html=1;rounded=0;fontSize=12;entryX=0;entryY=0.5;entryDx=0;entryDy=0;exitX=1;exitY=0.5;exitDx=0;exitDy=0;" parent="1" source="QfUjRXZaHYbQl4VEjJVI-27" target="QfUjRXZaHYbQl4VEjJVI-15" edge="1">
          <mxGeometry width="50" height="50" relative="1" as="geometry">
            <mxPoint x="180" y="440" as="sourcePoint" />
            <mxPoint x="230" y="390" as="targetPoint" />
          </mxGeometry>
        </mxCell>
        <mxCell id="QfUjRXZaHYbQl4VEjJVI-29" value="Client submits a ticket" style="rounded=1;whiteSpace=wrap;html=1;fontSize=12;fillColor=#fff2cc;strokeColor=#d6b656;" parent="1" vertex="1">
          <mxGeometry x="-390" y="850" width="120" height="60" as="geometry" />
        </mxCell>
        <mxCell id="QfUjRXZaHYbQl4VEjJVI-40" value="" style="strokeWidth=2;html=1;shape=mxgraph.flowchart.decision;whiteSpace=wrap;fontSize=12;" parent="1" vertex="1">
          <mxGeometry x="-220" y="830" width="100" height="100" as="geometry" />
        </mxCell>
        <mxCell id="QfUjRXZaHYbQl4VEjJVI-41" value="" style="endArrow=classic;html=1;rounded=0;fontSize=12;" parent="1" target="QfUjRXZaHYbQl4VEjJVI-40" edge="1">
          <mxGeometry width="50" height="50" relative="1" as="geometry">
            <mxPoint x="-270" y="880" as="sourcePoint" />
            <mxPoint x="280" y="540" as="targetPoint" />
          </mxGeometry>
        </mxCell>
        <mxCell id="QfUjRXZaHYbQl4VEjJVI-42" value="A new card is created" style="rounded=1;whiteSpace=wrap;html=1;fontSize=12;fillColor=#dae8fc;strokeColor=#6c8ebf;" parent="1" vertex="1">
          <mxGeometry x="-240" y="710" width="140" height="60" as="geometry" />
        </mxCell>
        <mxCell id="QfUjRXZaHYbQl4VEjJVI-43" value="Ticket is linked with the feature card" style="rounded=1;whiteSpace=wrap;html=1;fontSize=12;fillColor=#f8cecc;strokeColor=#b85450;" parent="1" vertex="1">
          <mxGeometry x="-70" y="850" width="140" height="60" as="geometry" />
        </mxCell>
        <mxCell id="QfUjRXZaHYbQl4VEjJVI-44" value="Yes" style="endArrow=classic;html=1;rounded=0;fontSize=12;exitX=1;exitY=0.5;exitDx=0;exitDy=0;exitPerimeter=0;" parent="1" source="QfUjRXZaHYbQl4VEjJVI-40" target="QfUjRXZaHYbQl4VEjJVI-43" edge="1">
          <mxGeometry width="50" height="50" relative="1" as="geometry">
            <mxPoint x="-150" y="880" as="sourcePoint" />
            <mxPoint x="-100" y="830" as="targetPoint" />
          </mxGeometry>
        </mxCell>
        <mxCell id="QfUjRXZaHYbQl4VEjJVI-45" value="No" style="endArrow=classic;html=1;rounded=0;fontSize=12;exitX=0.5;exitY=0;exitDx=0;exitDy=0;exitPerimeter=0;entryX=0.5;entryY=1;entryDx=0;entryDy=0;" parent="1" source="QfUjRXZaHYbQl4VEjJVI-40" target="QfUjRXZaHYbQl4VEjJVI-42" edge="1">
          <mxGeometry width="50" height="50" relative="1" as="geometry">
            <mxPoint x="230" y="580" as="sourcePoint" />
            <mxPoint x="280" y="530" as="targetPoint" />
          </mxGeometry>
        </mxCell>
        <mxCell id="QfUjRXZaHYbQl4VEjJVI-47" value="" style="endArrow=classic;html=1;rounded=0;fontSize=12;exitX=1;exitY=0.5;exitDx=0;exitDy=0;entryX=0.5;entryY=0;entryDx=0;entryDy=0;" parent="1" source="QfUjRXZaHYbQl4VEjJVI-42" target="QfUjRXZaHYbQl4VEjJVI-43" edge="1">
          <mxGeometry width="50" height="50" relative="1" as="geometry">
            <mxPoint x="230" y="580" as="sourcePoint" />
            <mxPoint x="280" y="530" as="targetPoint" />
            <Array as="points">
              <mxPoint y="740" />
            </Array>
          </mxGeometry>
        </mxCell>
        <mxCell id="QfUjRXZaHYbQl4VEjJVI-48" value="" style="strokeWidth=2;html=1;shape=mxgraph.flowchart.decision;whiteSpace=wrap;fontSize=12;" parent="1" vertex="1">
          <mxGeometry x="120" y="830" width="100" height="100" as="geometry" />
        </mxCell>
        <mxCell id="QfUjRXZaHYbQl4VEjJVI-49" value="" style="endArrow=classic;html=1;rounded=0;fontSize=12;exitX=1;exitY=0.5;exitDx=0;exitDy=0;" parent="1" source="QfUjRXZaHYbQl4VEjJVI-43" target="QfUjRXZaHYbQl4VEjJVI-48" edge="1">
          <mxGeometry width="50" height="50" relative="1" as="geometry">
            <mxPoint x="230" y="550" as="sourcePoint" />
            <mxPoint x="280" y="500" as="targetPoint" />
          </mxGeometry>
        </mxCell>
        <mxCell id="QfUjRXZaHYbQl4VEjJVI-50" value="" style="strokeWidth=2;html=1;shape=mxgraph.flowchart.decision;whiteSpace=wrap;fontSize=12;" parent="1" vertex="1">
          <mxGeometry x="120" y="690" width="100" height="100" as="geometry" />
        </mxCell>
        <mxCell id="QfUjRXZaHYbQl4VEjJVI-51" value="A new feature branch is created" style="rounded=1;whiteSpace=wrap;html=1;fontSize=12;fillColor=#d5e8d4;strokeColor=#82b366;" parent="1" vertex="1">
          <mxGeometry x="100" y="570" width="140" height="60" as="geometry" />
        </mxCell>
        <mxCell id="QfUjRXZaHYbQl4VEjJVI-52" value="The feature branch is linked with the the feature card" style="rounded=1;whiteSpace=wrap;html=1;fontSize=12;fillColor=#e1d5e7;strokeColor=#9673a6;" parent="1" vertex="1">
          <mxGeometry x="290" y="710" width="120" height="60" as="geometry" />
        </mxCell>
        <mxCell id="QfUjRXZaHYbQl4VEjJVI-69" style="edgeStyle=orthogonalEdgeStyle;rounded=0;orthogonalLoop=1;jettySize=auto;html=1;fontSize=12;" parent="1" source="QfUjRXZaHYbQl4VEjJVI-53" target="QfUjRXZaHYbQl4VEjJVI-67" edge="1">
          <mxGeometry relative="1" as="geometry" />
        </mxCell>
        <mxCell id="QfUjRXZaHYbQl4VEjJVI-53" value="The issue is solved" style="rounded=1;whiteSpace=wrap;html=1;fontSize=12;fillColor=#d5e8d4;strokeColor=#82b366;" parent="1" vertex="1">
          <mxGeometry x="290" y="850" width="120" height="60" as="geometry" />
        </mxCell>
        <mxCell id="QfUjRXZaHYbQl4VEjJVI-54" value="No" style="endArrow=classic;html=1;rounded=0;fontSize=12;exitX=0.5;exitY=0;exitDx=0;exitDy=0;exitPerimeter=0;entryX=0.5;entryY=1;entryDx=0;entryDy=0;entryPerimeter=0;" parent="1" source="QfUjRXZaHYbQl4VEjJVI-48" target="QfUjRXZaHYbQl4VEjJVI-50" edge="1">
          <mxGeometry width="50" height="50" relative="1" as="geometry">
            <mxPoint x="210" y="820" as="sourcePoint" />
            <mxPoint x="260" y="770" as="targetPoint" />
          </mxGeometry>
        </mxCell>
        <mxCell id="QfUjRXZaHYbQl4VEjJVI-57" value="Yes" style="endArrow=classic;html=1;rounded=0;fontSize=12;exitX=1;exitY=0.5;exitDx=0;exitDy=0;exitPerimeter=0;entryX=0;entryY=0.5;entryDx=0;entryDy=0;" parent="1" source="QfUjRXZaHYbQl4VEjJVI-50" target="QfUjRXZaHYbQl4VEjJVI-52" edge="1">
          <mxGeometry width="50" height="50" relative="1" as="geometry">
            <mxPoint x="280" y="670" as="sourcePoint" />
            <mxPoint x="290" y="680" as="targetPoint" />
          </mxGeometry>
        </mxCell>
        <mxCell id="QfUjRXZaHYbQl4VEjJVI-58" value="No" style="endArrow=classic;html=1;rounded=0;fontSize=12;exitX=0.5;exitY=0;exitDx=0;exitDy=0;exitPerimeter=0;entryX=0.5;entryY=1;entryDx=0;entryDy=0;" parent="1" source="QfUjRXZaHYbQl4VEjJVI-50" target="QfUjRXZaHYbQl4VEjJVI-51" edge="1">
          <mxGeometry width="50" height="50" relative="1" as="geometry">
            <mxPoint x="280" y="670" as="sourcePoint" />
            <mxPoint x="330" y="620" as="targetPoint" />
          </mxGeometry>
        </mxCell>
        <mxCell id="QfUjRXZaHYbQl4VEjJVI-59" value="" style="endArrow=classic;html=1;rounded=0;fontSize=12;exitX=0.992;exitY=0.557;exitDx=0;exitDy=0;exitPerimeter=0;entryX=0.5;entryY=0;entryDx=0;entryDy=0;" parent="1" source="QfUjRXZaHYbQl4VEjJVI-51" target="QfUjRXZaHYbQl4VEjJVI-52" edge="1">
          <mxGeometry width="50" height="50" relative="1" as="geometry">
            <mxPoint x="280" y="670" as="sourcePoint" />
            <mxPoint x="330" y="620" as="targetPoint" />
            <Array as="points">
              <mxPoint x="350" y="603" />
            </Array>
          </mxGeometry>
        </mxCell>
        <mxCell id="QfUjRXZaHYbQl4VEjJVI-60" value="" style="endArrow=classic;html=1;rounded=0;fontSize=12;exitX=0.5;exitY=1;exitDx=0;exitDy=0;entryX=0.5;entryY=0;entryDx=0;entryDy=0;" parent="1" source="QfUjRXZaHYbQl4VEjJVI-52" target="QfUjRXZaHYbQl4VEjJVI-53" edge="1">
          <mxGeometry width="50" height="50" relative="1" as="geometry">
            <mxPoint x="440" y="790" as="sourcePoint" />
            <mxPoint x="490" y="740" as="targetPoint" />
          </mxGeometry>
        </mxCell>
        <mxCell id="QfUjRXZaHYbQl4VEjJVI-61" value="Yes" style="endArrow=classic;html=1;rounded=0;fontSize=12;entryX=0;entryY=0.5;entryDx=0;entryDy=0;exitX=1.037;exitY=0.497;exitDx=0;exitDy=0;exitPerimeter=0;" parent="1" source="QfUjRXZaHYbQl4VEjJVI-48" target="QfUjRXZaHYbQl4VEjJVI-53" edge="1">
          <mxGeometry width="50" height="50" relative="1" as="geometry">
            <mxPoint x="230" y="880" as="sourcePoint" />
            <mxPoint x="280" y="830" as="targetPoint" />
          </mxGeometry>
        </mxCell>
        <mxCell id="QfUjRXZaHYbQl4VEjJVI-62" value="A feature card treating the issue already exists ?" style="text;html=1;strokeColor=none;fillColor=none;align=center;verticalAlign=middle;whiteSpace=wrap;rounded=0;fontSize=12;" parent="1" vertex="1">
          <mxGeometry x="-220" y="940" width="100" height="30" as="geometry" />
        </mxCell>
        <mxCell id="QfUjRXZaHYbQl4VEjJVI-63" value="A feature branch is alread linked with the feature card ?" style="text;html=1;strokeColor=none;fillColor=none;align=center;verticalAlign=middle;whiteSpace=wrap;rounded=0;fontSize=12;" parent="1" vertex="1">
          <mxGeometry x="110" y="940" width="120" height="30" as="geometry" />
        </mxCell>
        <mxCell id="QfUjRXZaHYbQl4VEjJVI-64" value="A feature branch is already treating the issue ?" style="text;html=1;strokeColor=none;fillColor=none;align=center;verticalAlign=middle;whiteSpace=wrap;rounded=0;fontSize=12;" parent="1" vertex="1">
          <mxGeometry x="30" y="690" width="100" height="30" as="geometry" />
        </mxCell>
        <mxCell id="QfUjRXZaHYbQl4VEjJVI-65" value="" style="strokeWidth=2;html=1;shape=mxgraph.flowchart.start_2;whiteSpace=wrap;fontSize=12;" parent="1" vertex="1">
          <mxGeometry x="-500" y="855" width="50" height="50" as="geometry" />
        </mxCell>
        <mxCell id="QfUjRXZaHYbQl4VEjJVI-66" value="" style="endArrow=classic;html=1;rounded=0;fontSize=12;exitX=1;exitY=0.5;exitDx=0;exitDy=0;exitPerimeter=0;" parent="1" source="QfUjRXZaHYbQl4VEjJVI-65" target="QfUjRXZaHYbQl4VEjJVI-29" edge="1">
          <mxGeometry width="50" height="50" relative="1" as="geometry">
            <mxPoint x="90" y="760" as="sourcePoint" />
            <mxPoint x="140" y="710" as="targetPoint" />
          </mxGeometry>
        </mxCell>
        <mxCell id="QfUjRXZaHYbQl4VEjJVI-67" value="" style="strokeWidth=2;html=1;shape=mxgraph.flowchart.start_2;whiteSpace=wrap;fontSize=12;" parent="1" vertex="1">
          <mxGeometry x="460" y="855" width="50" height="50" as="geometry" />
        </mxCell>
        <mxCell id="QfUjRXZaHYbQl4VEjJVI-70" value="" style="rounded=0;whiteSpace=wrap;html=1;fontSize=12;fillColor=#f8cecc;strokeColor=#b85450;" parent="1" vertex="1">
          <mxGeometry x="-200" y="430" width="120" height="60" as="geometry" />
        </mxCell>
        <mxCell id="QfUjRXZaHYbQl4VEjJVI-71" value="&lt;font style=&quot;font-size: 20px;&quot;&gt;Ticket-Card linker&lt;/font&gt;" style="text;html=1;strokeColor=none;fillColor=none;align=center;verticalAlign=middle;whiteSpace=wrap;rounded=0;fontStyle=1;fontSize=16;" parent="1" vertex="1">
          <mxGeometry x="-240" y="400" width="200" height="30" as="geometry" />
        </mxCell>
        <mxCell id="QfUjRXZaHYbQl4VEjJVI-72" value="" style="endArrow=none;dashed=1;html=1;dashPattern=1 3;strokeWidth=2;rounded=0;fontSize=12;exitX=0.75;exitY=1;exitDx=0;exitDy=0;entryX=0;entryY=0.5;entryDx=0;entryDy=0;" parent="1" source="QfUjRXZaHYbQl4VEjJVI-5" target="QfUjRXZaHYbQl4VEjJVI-70" edge="1">
          <mxGeometry width="50" height="50" relative="1" as="geometry">
            <mxPoint x="-300" y="450" as="sourcePoint" />
            <mxPoint x="-250" y="400" as="targetPoint" />
            <Array as="points">
              <mxPoint x="-250" y="460" />
            </Array>
          </mxGeometry>
        </mxCell>
        <mxCell id="QfUjRXZaHYbQl4VEjJVI-73" value="" style="endArrow=none;dashed=1;html=1;dashPattern=1 3;strokeWidth=2;rounded=0;fontSize=12;exitX=1;exitY=0.5;exitDx=0;exitDy=0;entryX=0.25;entryY=1;entryDx=0;entryDy=0;" parent="1" source="QfUjRXZaHYbQl4VEjJVI-70" target="QfUjRXZaHYbQl4VEjJVI-7" edge="1">
          <mxGeometry width="50" height="50" relative="1" as="geometry">
            <mxPoint x="150" y="480" as="sourcePoint" />
            <mxPoint x="200" y="430" as="targetPoint" />
            <Array as="points">
              <mxPoint x="-30" y="460" />
            </Array>
          </mxGeometry>
        </mxCell>
        <mxCell id="QfUjRXZaHYbQl4VEjJVI-74" value="" style="rounded=0;whiteSpace=wrap;html=1;fontSize=12;fillColor=#e1d5e7;strokeColor=#9673a6;" parent="1" vertex="1">
          <mxGeometry x="120" y="430" width="120" height="60" as="geometry" />
        </mxCell>
        <mxCell id="QfUjRXZaHYbQl4VEjJVI-75" value="&lt;font style=&quot;font-size: 20px;&quot;&gt;Card-Branch linker&lt;/font&gt;" style="text;html=1;strokeColor=none;fillColor=none;align=center;verticalAlign=middle;whiteSpace=wrap;rounded=0;fontStyle=1;fontSize=16;" parent="1" vertex="1">
          <mxGeometry x="80" y="400" width="200" height="30" as="geometry" />
        </mxCell>
        <mxCell id="QfUjRXZaHYbQl4VEjJVI-76" value="" style="endArrow=none;dashed=1;html=1;dashPattern=1 3;strokeWidth=2;rounded=0;fontSize=12;exitX=0.75;exitY=1;exitDx=0;exitDy=0;entryX=0;entryY=0.5;entryDx=0;entryDy=0;" parent="1" source="QfUjRXZaHYbQl4VEjJVI-7" target="QfUjRXZaHYbQl4VEjJVI-74" edge="1">
          <mxGeometry width="50" height="50" relative="1" as="geometry">
            <mxPoint x="150" y="480" as="sourcePoint" />
            <mxPoint x="200" y="430" as="targetPoint" />
            <Array as="points">
              <mxPoint x="70" y="460" />
            </Array>
          </mxGeometry>
        </mxCell>
        <mxCell id="QfUjRXZaHYbQl4VEjJVI-77" value="" style="endArrow=none;dashed=1;html=1;dashPattern=1 3;strokeWidth=2;rounded=0;fontSize=12;entryX=0.25;entryY=1;entryDx=0;entryDy=0;exitX=1;exitY=0.5;exitDx=0;exitDy=0;" parent="1" source="QfUjRXZaHYbQl4VEjJVI-74" target="QfUjRXZaHYbQl4VEjJVI-14" edge="1">
          <mxGeometry width="50" height="50" relative="1" as="geometry">
            <mxPoint x="150" y="480" as="sourcePoint" />
            <mxPoint x="200" y="430" as="targetPoint" />
            <Array as="points">
              <mxPoint x="290" y="460" />
            </Array>
          </mxGeometry>
        </mxCell>
        <mxCell id="ofToJJIBVl73OULYjI8x-1" value="Client" style="shape=umlActor;verticalLabelPosition=bottom;verticalAlign=top;html=1;outlineConnect=0;rounded=1;fontSize=12;" parent="1" vertex="1">
          <mxGeometry x="-500" y="-60" width="30" height="60" as="geometry" />
        </mxCell>
        <mxCell id="ofToJJIBVl73OULYjI8x-5" value="CTO / PO / Dev" style="shape=umlActor;verticalLabelPosition=bottom;verticalAlign=top;html=1;outlineConnect=0;rounded=1;fontSize=12;" parent="1" vertex="1">
          <mxGeometry x="-190" y="-60" width="30" height="60" as="geometry" />
        </mxCell>
        <mxCell id="ofToJJIBVl73OULYjI8x-7" value="Dev" style="shape=umlActor;verticalLabelPosition=bottom;verticalAlign=top;html=1;outlineConnect=0;rounded=1;fontSize=12;" parent="1" vertex="1">
          <mxGeometry x="140" y="-60" width="30" height="60" as="geometry" />
        </mxCell>
        <mxCell id="ofToJJIBVl73OULYjI8x-10" value="" style="endArrow=classic;html=1;rounded=0;fontSize=12;entryX=0;entryY=0;entryDx=0;entryDy=0;" parent="1" target="QfUjRXZaHYbQl4VEjJVI-14" edge="1">
          <mxGeometry width="50" height="50" relative="1" as="geometry">
            <mxPoint x="180" y="20" as="sourcePoint" />
            <mxPoint x="200" y="270" as="targetPoint" />
          </mxGeometry>
        </mxCell>
        <mxCell id="ofToJJIBVl73OULYjI8x-13" value="" style="endArrow=classic;html=1;rounded=0;fontSize=12;entryX=0;entryY=0;entryDx=0;entryDy=0;" parent="1" target="QfUjRXZaHYbQl4VEjJVI-7" edge="1">
          <mxGeometry width="50" height="50" relative="1" as="geometry">
            <mxPoint x="-140" y="20" as="sourcePoint" />
            <mxPoint x="-50" y="10" as="targetPoint" />
          </mxGeometry>
        </mxCell>
        <mxCell id="ofToJJIBVl73OULYjI8x-14" value="" style="endArrow=classic;html=1;rounded=0;fontSize=12;entryX=0;entryY=0;entryDx=0;entryDy=0;" parent="1" target="QfUjRXZaHYbQl4VEjJVI-5" edge="1">
          <mxGeometry width="50" height="50" relative="1" as="geometry">
            <mxPoint x="-460" y="20" as="sourcePoint" />
            <mxPoint x="-380" y="-45" as="targetPoint" />
          </mxGeometry>
        </mxCell>
        <mxCell id="ofToJJIBVl73OULYjI8x-15" value="Submits tickets" style="text;html=1;strokeColor=none;fillColor=none;align=center;verticalAlign=middle;whiteSpace=wrap;rounded=0;fontSize=12;" parent="1" vertex="1">
          <mxGeometry x="-440" y="20" width="60" height="30" as="geometry" />
        </mxCell>
        <mxCell id="ofToJJIBVl73OULYjI8x-17" value="Proposes new features" style="text;html=1;strokeColor=none;fillColor=none;align=center;verticalAlign=middle;whiteSpace=wrap;rounded=0;fontSize=12;" parent="1" vertex="1">
          <mxGeometry x="-110" y="20" width="60" height="30" as="geometry" />
        </mxCell>
        <mxCell id="ofToJJIBVl73OULYjI8x-26" value="Implements features" style="text;html=1;strokeColor=none;fillColor=none;align=center;verticalAlign=middle;whiteSpace=wrap;rounded=0;fontSize=12;" parent="1" vertex="1">
          <mxGeometry x="210" y="20" width="70" height="30" as="geometry" />
        </mxCell>
        <mxCell id="ofToJJIBVl73OULYjI8x-28" value="&lt;ul&gt;&lt;li&gt;&lt;b&gt;Ticket 1 &lt;/b&gt;corresponds to an issue solved by the &lt;b&gt;card c&lt;/b&gt;.&lt;/li&gt;&lt;li&gt;&lt;b&gt;Ticket 2&lt;/b&gt; corresponds to an issue similar to ticket 1. Thus it is linked to the same feature card as ticket 1.&lt;/li&gt;&lt;li&gt;&lt;b&gt;Ticket 3&lt;/b&gt; corresponds to an issue which is linked to &lt;b&gt;2 feature cards b and c &lt;/b&gt;(ex : one for a front feature, one for a back feature)&lt;/li&gt;&lt;/ul&gt;" style="text;html=1;strokeColor=#d6b656;fillColor=none;align=left;verticalAlign=middle;whiteSpace=wrap;rounded=0;fontSize=12;dashed=1;dashPattern=1 1;" parent="1" vertex="1">
          <mxGeometry x="-720" y="150" width="290" height="155" as="geometry" />
        </mxCell>
        <mxCell id="ofToJJIBVl73OULYjI8x-30" value="" style="endArrow=classic;startArrow=classic;html=1;rounded=0;fontSize=12;exitX=1;exitY=0.5;exitDx=0;exitDy=0;entryX=0;entryY=0.5;entryDx=0;entryDy=0;" parent="1" source="QfUjRXZaHYbQl4VEjJVI-4" target="QfUjRXZaHYbQl4VEjJVI-9" edge="1">
          <mxGeometry width="50" height="50" relative="1" as="geometry">
            <mxPoint x="-160" y="280" as="sourcePoint" />
            <mxPoint x="-110" y="230" as="targetPoint" />
          </mxGeometry>
        </mxCell>
        <mxCell id="ofToJJIBVl73OULYjI8x-32" value="&lt;ul&gt;&lt;li&gt;&lt;b&gt;Feature card a&lt;/b&gt; is implemented by the &lt;b&gt;branch feature/foo&lt;/b&gt;.&lt;/li&gt;&lt;li&gt;&lt;b&gt;Feature card b&lt;/b&gt;&amp;nbsp;is implemented by &lt;b&gt;2 branches: feature/foo and feature/bar&lt;/b&gt;&lt;/li&gt;&lt;li&gt;&lt;b&gt;Branch feature/foo &lt;/b&gt;serves 3 &lt;b&gt;feature cards &lt;/b&gt;: &lt;b&gt;a, b and c&amp;nbsp;&lt;/b&gt;&lt;/li&gt;&lt;/ul&gt;" style="text;html=1;strokeColor=#82b366;fillColor=none;align=left;verticalAlign=middle;whiteSpace=wrap;rounded=0;fontSize=12;dashed=1;dashPattern=1 1;" parent="1" vertex="1">
          <mxGeometry x="460" y="120" width="290" height="155" as="geometry" />
        </mxCell>
      </root>
    </mxGraphModel>
  </diagram>
</mxfile>
